<?xml version="1.0" standalone="no"?>
<!DOCTYPE svg PUBLIC "-//W3C//DTD SVG 20010904//EN"
 "http://www.w3.org/TR/2001/REC-SVG-20010904/DTD/svg10.dtd">
<svg version="1.0" xmlns="http://www.w3.org/2000/svg"
 width="700.000000pt" height="700.000000pt" viewBox="0 0 700.000000 700.000000"
 preserveAspectRatio="xMidYMid meet">
<metadata>
Created by potrace 1.11, written by Peter Selinger 2001-2013
</metadata>
<g transform="translate(0.000000,700.000000) scale(0.100000,-0.100000)"
fill="#000000" stroke="none">
<path d="M1339 6212 c-5 -13 -9 -27 -9 -31 0 -9 -291 -1193 -316 -1284 -8 -32
-17 -67 -19 -77 -2 -10 -28 -119 -59 -241 -30 -123 -114 -462 -186 -754 -72
-291 -144 -584 -161 -650 -17 -66 -33 -131 -35 -145 -3 -14 -14 -59 -25 -101
-11 -42 -21 -85 -23 -95 -2 -10 -25 -102 -51 -204 -26 -102 -48 -192 -50 -200
-2 -8 -29 -118 -60 -245 -31 -126 -58 -237 -60 -245 -2 -8 -22 -89 -45 -180
-23 -91 -43 -176 -46 -190 -3 -14 -8 -34 -11 -45 -4 -11 -8 -24 -9 -30 -1 -5
-27 -113 -58 -240 -61 -247 -108 -451 -110 -475 -1 -13 128 -15 1102 -16 606
0 1102 1 1102 2 0 1 -30 14 -67 30 -93 39 -254 136 -334 200 -176 143 -314
341 -383 551 -15 45 -28 85 -28 88 0 2 -6 28 -14 57 -38 145 -38 422 0 603 84
396 316 747 693 1050 158 126 311 225 568 365 161 88 212 116 230 126 17 11
11 20 -69 110 -305 342 -430 610 -428 919 2 174 49 357 141 550 154 322 402
568 758 751 59 31 109 59 110 63 2 3 -456 6 -1018 6 l-1021 1 -9 -24z"/>
<path d="M4334 6218 c-2 -3 29 -30 68 -59 240 -175 335 -274 413 -429 35 -69
78 -198 90 -265 11 -68 14 -297 4 -355 -52 -298 -178 -537 -405 -764 -157
-158 -376 -312 -639 -452 -38 -20 -96 -52 -128 -70 -32 -19 -62 -34 -68 -34
-5 0 -9 -3 -9 -8 0 -6 105 -131 214 -252 17 -19 60 -69 96 -110 36 -41 67 -77
70 -80 3 -3 34 -39 70 -80 36 -41 79 -91 96 -110 17 -19 113 -129 214 -245
100 -115 188 -215 194 -222 13 -14 45 33 342 494 32 51 66 104 74 117 8 14 98
156 200 316 354 557 333 529 416 558 44 16 87 18 414 16 473 -3 438 -19 501
240 17 71 32 137 34 145 2 9 69 279 148 601 176 709 238 964 250 1030 l5 25
-1330 0 c-731 0 -1332 -3 -1334 -7z"/>
<path d="M3728 5825 c-2 -2 -23 -6 -48 -8 -102 -12 -259 -76 -377 -154 -85
-55 -222 -197 -277 -286 -95 -153 -131 -272 -130 -432 1 -238 89 -413 344
-686 58 -62 108 -116 111 -121 3 -4 24 -10 47 -12 36 -4 63 6 202 75 267 133
408 226 553 368 148 144 242 301 269 451 17 93 14 245 -7 336 -53 229 -227
400 -463 455 -43 10 -217 21 -224 14z"/>
<path d="M5874 3693 c-53 -19 -82 -49 -155 -164 -35 -55 -205 -317 -377 -582
-172 -265 -324 -506 -339 -535 -30 -61 -33 -114 -9 -160 20 -39 179 -225 336
-392 8 -9 53 -58 100 -110 47 -52 94 -104 105 -116 11 -11 57 -61 101 -110 45
-49 100 -109 121 -132 l40 -44 87 350 c48 192 89 358 91 368 7 33 204 836 221
899 31 120 54 209 59 235 2 8 28 116 58 240 31 124 57 234 59 244 3 19 -5 20
-228 21 -170 1 -242 -2 -270 -12z"/>
<path d="M3129 3470 c-43 -12 -420 -204 -510 -260 -331 -207 -544 -460 -657
-782 -57 -161 -79 -346 -58 -478 22 -135 86 -300 158 -407 43 -63 141 -166
197 -207 87 -64 234 -127 331 -142 19 -3 55 -9 79 -14 75 -14 320 -10 406 6
287 54 467 167 700 439 33 39 63 72 66 75 3 3 79 97 169 210 90 113 167 207
171 210 19 14 49 79 49 106 0 55 -14 75 -205 289 -35 39 -75 86 -91 105 -16
19 -31 37 -35 40 -5 5 -84 95 -201 231 -25 30 -56 65 -68 79 -53 61 -246 285
-331 384 -96 112 -121 129 -170 116z"/>
<path d="M4552 1874 c-9 -16 -135 -190 -159 -219 -5 -5 -44 -55 -88 -110 -99
-125 -313 -339 -425 -426 -172 -135 -345 -235 -530 -308 -47 -19 -88 -37 -92
-40 -4 -3 521 -6 1167 -5 646 0 1177 3 1180 6 4 3 -8 22 -27 41 -18 19 -66 70
-107 113 -41 44 -106 113 -145 154 -39 42 -102 109 -140 150 -38 41 -103 111
-145 155 -42 44 -137 145 -211 224 -291 311 -266 287 -278 265z"/>
</g>
</svg>
