<?xml version="1.0" encoding="iso-8859-1"?>
<!-- Generator: Adobe Illustrator 24.0.0, SVG Export Plug-In . SVG Version: 6.00 Build 0)  -->
<svg version="1.1" xmlns="http://www.w3.org/2000/svg" xmlns:xlink="http://www.w3.org/1999/xlink" x="0px" y="0px"
	 viewBox="0 0 100 100" style="enable-background:new 0 0 100 100;" xml:space="preserve">
<g id="check-on">
	<g>
		<path d="M0,50C0,22.647,22.647,0,49.951,0C77.304,0,100,22.647,100,50c0,27.304-22.647,50-50,50C22.696,100,0,77.304,0,50z
			 M48.578,71.569l23.039-36.275c0.588-1.029,1.225-2.157,1.225-3.235c0-2.304-2.01-3.775-4.167-3.775
			c-1.275,0-2.549,0.784-3.48,2.255L44.265,64.167l-9.951-12.843c-1.225-1.618-2.304-2.059-3.725-2.059
			c-2.206,0-3.922,1.814-3.922,4.02c0,1.127,0.441,2.206,1.176,3.186l12.304,15.098c1.275,1.716,2.647,2.402,4.314,2.402
			S47.549,73.186,48.578,71.569z"/>
	</g>
</g>
<g id="Layer_1">
</g>
</svg>
